<mxfile host="app.diagrams.net" agent="Mozilla/5.0 (Windows NT 10.0; Win64; x64) AppleWebKit/537.36 (KHTML, like Gecko) Chrome/128.0.0.0 Safari/537.36" version="26.0.1">
  <diagram name="第 1 页" id="Xlnudr4jDnuGbzEAOi6u">
    <mxGraphModel dx="436" dy="190" grid="0" gridSize="10" guides="1" tooltips="1" connect="1" arrows="1" fold="1" page="1" pageScale="1" pageWidth="827" pageHeight="1169" math="0" shadow="0">
      <root>
        <mxCell id="0" />
        <mxCell id="1" parent="0" />
        <mxCell id="FPpynJP1I3XUOvL5jEjL-2" value="特殊作业票管理系统" style="rounded=0;whiteSpace=wrap;html=1;" vertex="1" parent="1">
          <mxGeometry x="332" y="259" width="138" height="30" as="geometry" />
        </mxCell>
        <mxCell id="FPpynJP1I3XUOvL5jEjL-5" value="用户" style="rounded=0;whiteSpace=wrap;html=1;" vertex="1" parent="1">
          <mxGeometry x="441" y="330" width="81" height="23" as="geometry" />
        </mxCell>
        <mxCell id="FPpynJP1I3XUOvL5jEjL-6" value="系统管理员" style="rounded=0;whiteSpace=wrap;html=1;" vertex="1" parent="1">
          <mxGeometry x="274" y="327" width="81" height="23" as="geometry" />
        </mxCell>
        <mxCell id="FPpynJP1I3XUOvL5jEjL-7" value="用户管理" style="rounded=0;whiteSpace=wrap;html=1;" vertex="1" parent="1">
          <mxGeometry x="247.5" y="386" width="24" height="100" as="geometry" />
        </mxCell>
        <mxCell id="FPpynJP1I3XUOvL5jEjL-9" value="部门管理" style="rounded=0;whiteSpace=wrap;html=1;" vertex="1" parent="1">
          <mxGeometry x="284.5" y="386" width="24" height="100" as="geometry" />
        </mxCell>
        <mxCell id="FPpynJP1I3XUOvL5jEjL-10" value="流程管理" style="rounded=0;whiteSpace=wrap;html=1;" vertex="1" parent="1">
          <mxGeometry x="320.5" y="386" width="24" height="100" as="geometry" />
        </mxCell>
        <mxCell id="FPpynJP1I3XUOvL5jEjL-11" value="作业票申请" style="rounded=0;whiteSpace=wrap;html=1;" vertex="1" parent="1">
          <mxGeometry x="431" y="386" width="24" height="100" as="geometry" />
        </mxCell>
        <mxCell id="FPpynJP1I3XUOvL5jEjL-12" value="作业票审核" style="rounded=0;whiteSpace=wrap;html=1;" vertex="1" parent="1">
          <mxGeometry x="470" y="386" width="24" height="100" as="geometry" />
        </mxCell>
        <mxCell id="FPpynJP1I3XUOvL5jEjL-13" value="作业票预览" style="rounded=0;whiteSpace=wrap;html=1;" vertex="1" parent="1">
          <mxGeometry x="508" y="386" width="24" height="100" as="geometry" />
        </mxCell>
        <mxCell id="FPpynJP1I3XUOvL5jEjL-15" value="作业票管理" style="rounded=0;whiteSpace=wrap;html=1;" vertex="1" parent="1">
          <mxGeometry x="357.5" y="386" width="24" height="100" as="geometry" />
        </mxCell>
      </root>
    </mxGraphModel>
  </diagram>
</mxfile>
